<?xml version="1.0" encoding="iso-8859-1"?>
<!-- Generator: Adobe Illustrator 19.0.0, SVG Export Plug-In . SVG Version: 6.00 Build 0)  -->
<svg version="1.1" id="Layer_1" xmlns="http://www.w3.org/2000/svg" xmlns:xlink="http://www.w3.org/1999/xlink" x="0px" y="0px"
	 viewBox="0 0 511.998 511.998" style="enable-background:new 0 0 511.998 511.998;" xml:space="preserve">
<polygon style="fill:#FC6E51;" points="382.999,122.002 354.499,89.503 314,50.003 255.507,15.503 300.25,97.502 269.008,131.502 
	241.007,162.502 213.008,130.002 202.008,69.503 141.508,79.503 96.008,88.503 42.009,125.502 13.509,201.002 18.009,258.002 
	30.009,337.001 68.009,413.5 130.008,322.501 154.508,345 220.007,224.501 246.507,232.001 261.508,279.002 252.507,343.5 
	208.672,423.5 182.008,479 198.508,466 230.507,443 304,360 328.5,314.001 338,270.002 338,230.001 310,188.002 299.5,168.502 
	302.5,144.002 328,122.002 346.499,149.002 378.499,162.502 401.999,159.502 401.999,131.002 "/>
<path d="M416.748,151.315l-7.328-22.219c-0.969-2.922-3.156-5.281-6-6.484l-10.437-4.391l-38.312-47.656
	c-0.672-0.812-1.438-1.531-2.312-2.125l-97.82-66.593c-4.219-2.875-9.875-2.344-13.508,1.25c-3.625,3.594-4.195,9.25-1.367,13.5
	l48.18,72.203c-4.156,6.296-11.328,16.875-19.312,27.609c-17.547,23.547-26.446,30.844-29.915,33.047
	c-9.672-8.734-17.812-23.734-23.671-43.688c-5.055-17.234-6.547-31.984-6.555-32.125c-0.008-0.016-0.008-0.016-0.008-0.016
	c-0.016-0.141-0.031-0.25-0.055-0.375c-0.023-0.234-0.062-0.469-0.102-0.688c-0.008-0.031-0.008-0.062-0.016-0.094l-4.477-21.328
	c-1.211-5.766-6.867-9.453-12.633-8.25s-9.453,6.859-8.25,12.641l1.734,8.25c-16.281,0.25-44.726,2.203-74.453,11.406
	c-40.507,12.531-70.414,34.218-88.882,64.468c-38,62.281-24.867,156.874,39.031,281.216c1.766,3.422,5.234,5.625,9.086,5.781
	s7.477-1.781,9.492-5.062l51.335-83.53l22.453,21.624c2.484,2.391,5.976,3.438,9.367,2.781c3.398-0.625,6.266-2.875,7.719-6
	l55.179-119.608l15.188,4.516c29.993,34.469,4.953,99.234-21.695,147.967c-30.828,56.375-71.007,104.578-71.476,105.125
	c-3.359,4.016-3.32,9.875,0.094,13.828c2.094,2.422,5.07,3.703,8.086,3.703c1.914,0,3.835-0.516,5.562-1.562
	c1.758-1.094,43.391-26.75,87.695-67.25c26.165-23.906,47.758-48.031,64.196-71.719c20.922-30.14,33.562-59.718,37.53-87.937
	c5.828-41.25-6.594-79.593-36.921-113.983l-0.984-11.812l15.172-18.453l5.719,11.453c1.109,2.219,2.953,3.984,5.234,4.984
	l43.812,19.375c2.984,1.328,6.406,1.203,9.297-0.328l20.187-10.688C416.217,161.658,418.389,156.252,416.748,151.315z
	 M386.015,153.502l-35.562-15.75l-11.358-22.688c-1.609-3.219-4.75-5.422-8.344-5.828c-3.578-0.406-7.125,1.031-9.422,3.828
	l-28.375,34.469c-1.766,2.141-2.625,4.891-2.391,7.656l1.656,19.719c0.188,2.344,1.172,4.562,2.75,6.312
	c14.5,15.844,24.641,32.656,30.125,50c4.969,15.688,6.281,32.282,3.891,49.312c-8.016,56.875-55.938,111.155-94.727,146.655
	c-10.133,9.281-20.187,17.781-29.648,25.375c10.586-15.625,21.921-33.641,32.375-52.734c18.992-34.688,31.024-65.749,35.766-92.327
	c6.312-35.358-0.125-63.25-19.118-82.906c-1.273-1.328-2.867-2.297-4.625-2.812l-26.859-8c-1.008-0.312-2.039-0.453-3.047-0.453
	c-4.07,0-7.906,2.344-9.687,6.203l-52.773,114.375l-21.195-20.406c-2.328-2.25-5.539-3.312-8.742-2.906s-6.055,2.25-7.742,5
	l-48.234,78.468C43.22,337.501,27.056,287.642,22.642,245.673c-4.016-38.109,1.648-70.031,16.82-94.89
	c15.68-25.688,41.586-44.281,76.984-55.219c29.414-9.109,57.625-10.468,71.828-10.468c0.055,0,0.109,0,0.164,0
	c0.539,3.281,1.266,7.266,2.234,11.718c-24.508,2.5-76.726,12.594-109.585,53.5c-27.398,34.078-34.711,81.187-21.734,139.983
	c1.102,4.984,5.516,8.359,10.406,8.359c0.766,0,1.539-0.062,2.312-0.25c5.75-1.266,9.383-6.953,8.117-12.719
	c-11.5-52.093-5.633-93.124,17.437-121.905c29.367-36.656,79.546-44.375,98.718-46.015c1.953,5.953,4.102,11.484,6.445,16.609
	c-9.438,2.344-22.062,6.594-34.727,14.234c-23.125,13.953-50.687,42.078-50.679,96.718c0,5.891,4.773,10.672,10.664,10.672
	c5.891,0,10.664-4.782,10.664-10.672c0-35.578,13.367-61.843,39.734-78.062c13.805-8.484,27.875-12.062,35.562-13.484
	c4.289,5.843,8.992,10.734,14.101,14.656c2.703,2.094,5.984,3.188,9.484,3.188c7.148,0,14.758-4.438,24.657-14.438
	c6.273-6.328,13.609-15.062,21.797-25.921c13.719-18.188,25.094-36.078,25.562-36.828c2.266-3.562,2.219-8.125-0.125-11.625
	l-21.688-32.531l51.234,34.891l39.015,48.515c1.109,1.391,2.562,2.469,4.188,3.156l8.453,3.562l2.984,9.031L386.015,153.502z"/>
<path d="M498.076,207.408c-4.781-3.438-11.453-2.344-14.875,2.453c-3.438,4.781-2.344,11.453,2.438,14.89
	c4,2.859,5.156,5.5,4.938,6.875c-0.156,0.969-0.969,1.797-2.141,2.156c-2.391,0.766-5.625-0.656-8.641-3.781
	c-23.109-23.968-56.094-55.156-56.438-55.468c-4.281-4.031-11.031-3.844-15.078,0.438c-4.031,4.281-3.844,11.031,0.438,15.078
	c0.328,0.312,32.953,31.156,55.719,54.765c6.609,6.844,14.688,10.5,22.688,10.5c2.594,0,5.188-0.375,7.703-1.172
	c8.922-2.797,15.375-10.141,16.812-19.141C513.279,224.83,508.342,214.768,498.076,207.408z"/>
<g>
</g>
<g>
</g>
<g>
</g>
<g>
</g>
<g>
</g>
<g>
</g>
<g>
</g>
<g>
</g>
<g>
</g>
<g>
</g>
<g>
</g>
<g>
</g>
<g>
</g>
<g>
</g>
<g>
</g>
</svg>
